<svg xmlns="http://www.w3.org/2000/svg" width="256" height="256" viewBox="0 0 100 100"><rect width="100" height="100" rx="20" fill="#f9a613"></rect><path d="M75.64 49.38L75.64 49.38Q75.64 65.29 67.01 73.71Q58.37 82.12 42.16 82.12L42.16 82.12L24.36 82.12L24.36 17.88L44.05 17.88Q59.03 17.88 67.34 26.18Q75.64 34.49 75.64 49.38ZM67.73 49.65L67.73 49.65Q67.73 37.08 61.43 30.71Q55.12 24.34 42.68 24.34L42.68 24.34L31.83 24.34L31.83 75.66L40.93 75.66Q54.28 75.66 61.01 69.09Q67.73 62.52 67.73 49.65Z" fill="#fff"></path></svg>